<?xml version="1.0" encoding="UTF-8" standalone="no"?>
<svg
   version="1.1"
   viewBox="-5.0 -10.0 110.0 135.0"
   id="svg14"
   sodipodi:docname="noun-rain-7171586.svg"
   inkscape:version="1.2.2 (732a01da63, 2022-12-09)"
   xmlns:inkscape="http://www.inkscape.org/namespaces/inkscape"
   xmlns:sodipodi="http://sodipodi.sourceforge.net/DTD/sodipodi-0.dtd"
   xmlns="http://www.w3.org/2000/svg"
   xmlns:svg="http://www.w3.org/2000/svg">
  <defs
     id="defs18" />
  <sodipodi:namedview
     id="namedview16"
     pagecolor="#ffffff"
     bordercolor="#000000"
     borderopacity="0.25"
     inkscape:showpageshadow="2"
     inkscape:pageopacity="0.0"
     inkscape:pagecheckerboard="0"
     inkscape:deskcolor="#d1d1d1"
     showgrid="false"
     inkscape:zoom="7.6074074"
     inkscape:cx="79.987829"
     inkscape:cy="69.143135"
     inkscape:window-width="2560"
     inkscape:window-height="1369"
     inkscape:window-x="-8"
     inkscape:window-y="1432"
     inkscape:window-maximized="1"
     inkscape:current-layer="svg14" />
  <g
     id="g341"
     transform="translate(-0.98762117,-1.1935801)">
    <path
       d="m 100.98762,56.454823 c 0,-14.027215 -11.491138,-25.524923 -25.524922,-25.524923 -5.970044,0 -11.940088,2.087127 -16.569857,5.970044 -0.448917,0.297338 -0.897835,0.594676 -1.492511,0.594676 -0.594676,0 -1.195173,-0.297338 -1.64415,-0.746256 -0.746256,-0.897835 -0.746256,-2.390405 0.297338,-3.136661 4.774841,-4.028586 10.744885,-6.56466 17.011641,-7.013608 C 72.021565,16.150518 63.958453,7.7894712 53.365505,6.6014332 c -0.734599,-0.145753 -1.632508,-0.145753 -2.378764,-0.145753 -12.237396,0 -22.235429,9.9986298 -22.235429,22.2354288 0,1.195173 -1.043593,2.238767 -2.238766,2.238767 -14.027216,0 -25.52492366,11.491141 -25.52492366,25.524923 0,14.027216 11.04219366,25.524924 24.62643166,25.524924 h 49.846883 c 14.033035,0 25.524923,-11.496962 25.524923,-25.524924 z"
       id="path2"
       style="fill:#00ffff;stroke-width:1.49251" />
    <path
       d="m 83.526735,103.31669 c 0,-3.433974 -4.477533,-9.998634 -5.818404,-11.940094 -0.448918,-0.594676 -1.043594,-0.897835 -1.78982,-0.897835 -0.746225,0 -1.340931,0.297338 -1.789819,0.897835 -1.340932,1.94146 -5.818405,8.50612 -5.818405,11.940094 0,4.18022 3.433969,7.61419 7.614194,7.61419 4.168584,0 7.602553,-3.43397 7.602553,-7.61419 z"
       id="path4"
       style="fill:#00ffff;stroke-width:1.49251" />
    <path
       d="m 26.065061,110.93148 c 4.180225,0 7.614194,-3.43397 7.614194,-7.61419 0,-3.433974 -4.477533,-9.998634 -5.818405,-11.940097 -0.897835,-1.195173 -2.833383,-1.195173 -3.579638,0 -1.340932,1.941463 -5.818405,8.506123 -5.818405,11.940097 -0.01166,4.18022 3.422328,7.61419 7.602552,7.61419 z"
       id="path6"
       style="fill:#00ffff;stroke-width:1.49251" />
    <path
       d="m 58.603294,103.31669 c 0,-3.433974 -4.477533,-9.998634 -5.818405,-11.940094 -0.897835,-1.195173 -2.833383,-1.195173 -3.579639,0 -1.340931,1.94146 -5.818405,8.50612 -5.818405,11.940094 0,4.18022 3.43397,7.61419 7.614195,7.61419 4.168583,0 7.602552,-3.43397 7.602552,-7.61419 z"
       id="path8"
       style="fill:#00ffff;stroke-width:1.49251" />
  </g>
</svg>
